# xmcd
#
# Track frame offsets:
#	150
#	17687
#	31480
#	48784
#	69169
#	85863
#	104054
#	116282
#	129461
#	141463
#	158161
#	171750
#	183959
#	199170
#	212190
#
# Disc length: 3021 seconds
#
# Revision: 0
# Processed by: cddbd v1.5.2PL0 Copyright (c) Steve Scherf et al.
# Submitted via: EasyCDDAExtractor 16.0.6.1
#
DISCID=cd0bcb0f
DTITLE=Νταλάρας Γιώργος-Αλεξίου Χ.-Λαμπρόπουλος Π. - Πενήντα χρόνια ρεμπέτικο 
DTITLE=τραγούδι-Γ. Νταλάρας 1
DYEAR=1975
DGENRE=Ρεμπέτικη
TTITLE0=Γλυκοχαράζουν τα βουνά [Βασίλης Τσιτσάνης]
TTITLE1=Τι σού λέει η μάννα σου για μένα [Κώστας Σκαρβέλης]
TTITLE2=Του Βοτανικού ο μάγκας [Γ. Μπιθικώτσης-Λ. Τσώλης]
TTITLE3=Θα κάνω ντου βρε πονηρή [Β. Τσιτσάνης-Κ. Βίρβος]
TTITLE4=Όλοι οι ρεμπέτες του ντουνιά [Μάρκος Βαμβακάρης]
TTITLE5=Το γράμμα [Γ. Ζαμπέτας-Γ. Μητσάκης]
TTITLE6=Για την απονιά σου [Ν. Γούναρης-Ρ. Τάλμας]
TTITLE7=Καρδιά μου μην παραπονιέσαι [Ά. Πάνου-Γ. Μπιθικώτσης]
TTITLE8=Το χρήμα δεν το λογαριάζω [Μανώλης Χιώτης]
TTITLE9=Ένας αλήτης πέθανε [Κ. Καπλάνης-Κ. Μάνεσης]
TTITLE10=Άλλα μού λέν' τα μάτια σου [Θ. Δερβενιώτης-Κ. Μάνεσης]
TTITLE11=Τι τραβάω, τι τραβάω [Απόστολος Καλδάρας]
TTITLE12=Μπρος στο ρημαγμένο σπίτι [Βασίλης Τσιτσάνης]
TTITLE13=Ό,τι κι αν πω δε σε ξεχνώ [Βασίλης Τσιτσάνης]
TTITLE14=Οι φάμπρικες [Βασίλης Τσιτσάνης]
EXTD=
EXTT0=
EXTT1=
EXTT2=
EXTT3=
EXTT4=
EXTT5=
EXTT6=
EXTT7=
EXTT8=
EXTT9=
EXTT10=
EXTT11=
EXTT12=
EXTT13=
EXTT14=
PLAYORDER=
